<svg width="295" height="84" viewBox="0 0 295 84" fill="none" xmlns="http://www.w3.org/2000/svg">
<g clip-path="url(#clip0_244_4488)">
<path d="M375 81.9273C361.456 83.033 325.191 83.9578 288.479 78.8111C242.59 72.3778 203.154 64.7382 137.906 68.1559C72.6573 71.5736 48.5177 75.7955 -0.000478286 71.9757" stroke="#BF9D7D" stroke-width="0.5"/>
<path d="M375 74.4483C361.456 75.554 325.191 76.4788 288.479 71.3321C242.59 64.8988 203.154 57.2592 137.906 60.6769C72.6573 64.0946 48.5177 68.3165 -0.000478286 64.4967" stroke="#BF9D7D" stroke-width="0.5"/>
<path d="M375 66.9692C361.456 68.075 325.191 68.9998 288.479 63.8531C242.59 57.4198 203.154 49.7802 137.906 53.1979C72.6573 56.6156 48.5177 60.8375 -0.000478286 57.0177" stroke="#BF9D7D" stroke-width="0.5"/>
<path d="M375 59.4902C361.456 60.596 325.191 61.5208 288.479 56.3741C242.59 49.9408 203.154 42.3012 137.906 45.7189C72.6573 49.1366 48.5177 53.3585 -0.000478286 49.5387" stroke="#BF9D7D" stroke-width="0.5"/>
<path d="M375 52.0112C361.456 53.117 325.191 54.0418 288.479 48.8951C242.59 42.4618 203.154 34.8222 137.906 38.2399C72.6573 41.6576 48.5177 45.8795 -0.000478286 42.0597" stroke="#BF9D7D" stroke-width="0.5"/>
<path d="M375 44.5322C361.456 45.638 325.191 46.5628 288.479 41.4161C242.59 34.9828 203.154 27.3432 137.906 30.7609C72.6573 34.1786 48.5177 38.4005 -0.000478286 34.5807" stroke="#BF9D7D" stroke-width="0.5"/>
<path d="M375 37.0532C361.456 38.159 325.191 39.0838 288.479 33.9371C242.59 27.5038 203.154 19.8642 137.906 23.2819C72.6573 26.6996 48.5177 30.9215 -0.000478286 27.1017" stroke="#BF9D7D" stroke-width="0.5"/>
<path d="M375 29.5742C361.456 30.68 325.191 31.6048 288.479 26.4581C242.59 20.0248 203.154 12.3852 137.906 15.8029C72.6573 19.2206 48.5177 23.4424 -0.000478286 19.6227" stroke="#BF9D7D" stroke-width="0.5"/>
<path d="M375 22.0952C361.456 23.201 325.191 24.1257 288.479 18.9791C242.59 12.5458 203.154 4.90617 137.906 8.32388C72.6573 11.7416 48.5177 15.9634 -0.000478286 12.1437" stroke="#BF9D7D" stroke-width="0.5"/>
<path d="M375 14.6165C361.456 15.7222 325.191 16.647 288.479 11.5003C242.59 5.06699 203.154 -2.57259 137.906 0.845116C72.6573 4.26282 48.5177 8.48469 -0.000478286 4.6649" stroke="#BF9D7D" stroke-width="0.5"/>
</g>
<defs>
<clipPath id="clip0_244_4488">
<rect width="375" height="84" fill="white"/>
</clipPath>
</defs>
</svg>
